<svg width="32" height="32" viewBox="0 0 32 32" fill="none" xmlns="http://www.w3.org/2000/svg">
  <path d="M11.2 12.1L15.1 9.9C15.8 9.5 16.7 9.5 17.4 9.9L21.3 12.1C22 12.5 22.4 13.3 22.4 14.1V17.9C22.4 18.7 22 19.5 21.3 19.9L17.4 22.1C16.7 22.5 15.8 22.5 15.1 22.1L11.2 19.9C10.5 19.5 10.1 18.7 10.1 17.9V14.1C10.1 13.3 10.5 12.5 11.2 12.1Z" stroke="#8247E5" stroke-width="2" stroke-linejoin="round"/>
  <path d="M20.9 10.2L24.8 12.4C25.5 12.8 25.9 13.6 25.9 14.4V18.2C25.9 19 25.5 19.8 24.8 20.2L20.9 22.4C20.2 22.8 19.3 22.8 18.6 22.4" stroke="#8247E5" stroke-width="2" stroke-linecap="round" stroke-linejoin="round"/>
</svg>
