<svg xmlns="http://www.w3.org/2000/svg" viewBox="0 0 318.6 318.6" aria-hidden="true">
  <path fill="#E2761B" d="M274.1 35.5l-99.5 73.9L193 65.2zM44.4 35.5l98.7 74.6-17.5-44.3zm193.9 171.3l-26.5 40.6 56.7 15.6 16.3-55.3zm-204.4.9L50.1 263l56.7-15.6-26.5-40.6zM103.6 138.2l-15.8 23.9 56.3 2.5-2-60.5zm111.3 0l-39-34.8-1.3 61.2 56.2-2.5zM106.8 247.4l33.8-16.5-29.2-25.1zm71.1-16.5l33.9 16.5-4.7-41.6z"/>
  <path fill="#D7C1B3" d="M211.8 247.4l-33.9-16.5 2.7 22.1-.3 9.3zm-105 0l31.5 14.9-.2-9.3 2.5-22.1z"/>
  <path fill="#233447" d="M138.8 193.5l-28.2-8.3 19.9-9.1zm40.9 0l8.3-17.4 20 9.1zm-49.2-43.4l-15.8 23.9 6.5-31.2zm28.2 0l9.2-7.3 6.4 31.2z"/>
  <path fill="#CD6116" d="M103.6 138.2l2.7 46.3-37.2-10.9zm56.4 26.4l3.3-28.9 1.5-13-.7-3.2zm-60.2 17.4l-26.5 40.6 26.5-11.2zm107.2 29.4l-26.5-40.6 26.5 11.2zM170.6 164.2l-3.3 28.9 24.9 12.1 5.6-34.2zm-67 0l-27.2 6.8 5.6 34.2 24.9-12.1z"/>
  <path fill="#E4751F" d="M212.3 185.3l-24.9-12.1 2 16.1-.2 4.8 23.1-.1zm-105.7 0l23.1.1-.2-4.8 2-16.1-24.9 12.1z"/>
  <path fill="#F5841F" d="M139.6 247.4l2.5-22.1-21.5-.6zm38.3-22.7l2.6 22.1 18.9-22.7zm64.1-67.6l-56.7 15.6 5.2 28.9 8.3-17.4 24.9 12.1 35.4-16.5-16.6-23.3zm-169.4 23.3l35.4 16.5 24.9-12.1 8.3 17.4 5.2-28.9-56.7-15.6z"/>
  <path fill="#C0AC9D" d="M193.6 65.2l-19.9 119.4 2.5-2.2H140l2.5 2.2L125 65.2z"/>
  <path fill="#161616" d="M238.3 262.3l.9-7.6 4-55.3-120.3 34.1 34.9 28.9 49.2 12.3 31.3-2.4zm-157.9-65.2l4 55.3.9 7.6 31.3 2.4 49.2-12.3 34.9-28.9-120.3-34.1z"/>
  <path fill="#763D16" d="M244.8 121.3l4.8-23.2-7.3-22.1-111.2 82.4 43.2 36.2 61-17.8 9.5-55.5zm-171 0l9.5 55.5 61 17.8 43.2-36.2-111.2-82.4-7.3 22.1z"/>
</svg>
