<svg width="32" height="32" viewBox="0 0 32 32" fill="none" xmlns="http://www.w3.org/2000/svg">
  <circle cx="16" cy="16" r="16" fill="#2775CA"/>
  <circle cx="16" cy="16" r="13.5" fill="#fff"/>
  <circle cx="16" cy="16" r="11.5" fill="#2775CA"/>
  <path d="M16 9.5c-3.589 0-6.5 2.911-6.5 6.5s2.911 6.5 6.5 6.5 6.5-2.911 6.5-6.5-2.911-6.5-6.5-6.5zm0 11c-2.485 0-4.5-2.015-4.5-4.5s2.015-4.5 4.5-4.5 4.5 2.015 4.5 4.5-2.015 4.5-4.5 4.5z" fill="#fff"/>
  <path d="M16 11v1.5c.828 0 1.5.672 1.5 1.5h1.5c0-1.657-1.343-3-3-3zm0 10v-1.5c-.828 0-1.5-.672-1.5-1.5h-1.5c0 1.657 1.343 3 3 3z" fill="#fff"/>
  <path d="M14.5 15h3v2h-3v-2z" fill="#2775CA"/>
  <path d="M16 12.5v7h-1v-7h1z" fill="#fff"/>
</svg>
